<?xml version="1.0" encoding="UTF-8" standalone="no"?>
<svg width="100%" height="100%" viewBox="0 0 715 337" version="1.1" xmlns="http://www.w3.org/2000/svg" xmlns:xlink="http://www.w3.org/1999/xlink" xml:space="preserve" xmlns:serif="http://www.serif.com/" style="fill-rule:evenodd;clip-rule:evenodd;stroke-linejoin:round;stroke-miterlimit:2;">
    <title>CodeCarvings</title>
    <g transform="matrix(1,0,0,1,-17.758,-56.675)">
        <g transform="matrix(1,0,0,-1,0,450)">
            <g id="Group_1">
                <path d="M305.29,359.698C296.978,356.297 289.798,351.386 282.241,343.829C274.685,336.65 269.018,327.96 265.24,318.892C259.571,306.046 256.927,290.554 256.927,272.041C256.927,242.947 264.861,220.277 281.109,204.031C296.978,187.406 318.513,179.471 344.962,179.471C371.789,179.471 393.324,187.406 409.193,204.031C425.818,220.277 433.375,243.703 433.375,273.174C433.375,302.645 425.818,325.693 409.193,342.318C392.947,358.564 371.789,366.877 344.962,366.877C329.848,366.877 316.625,364.988 305.29,359.698M294.711,273.552C294.711,294.711 299.245,309.824 308.69,320.025C318.136,330.983 329.848,335.894 344.962,335.894C360.454,335.894 372.544,330.983 381.989,320.404C391.057,310.202 395.591,294.711 395.591,273.552C395.591,252.394 391.057,237.28 381.612,226.701C371.789,215.743 359.698,210.832 344.962,210.832C330.983,210.832 318.513,215.743 308.69,226.701C299.245,237.28 294.711,252.394 294.711,273.552Z" style="fill:rgb(231,25,71);"/>
                <path d="M182.116,366.877C156.424,366.877 136.021,358.564 120.907,342.318C104.66,325.693 97.103,301.889 97.103,271.285C97.103,242.947 104.66,220.277 120.152,204.031C135.265,187.406 155.289,179.471 179.849,179.471C199.497,179.471 215.366,184.005 228.589,193.829C240.68,203.275 250.126,218.01 255.793,238.036L219.9,249.371C217.254,236.146 211.964,225.945 204.786,219.522C197.607,213.476 189.294,210.832 179.849,210.832C166.624,210.832 155.668,215.743 147.356,225.19C138.665,235.013 134.886,250.882 134.886,274.308C134.886,296.222 138.665,311.713 147.356,321.159C155.668,330.983 166.624,335.894 180.226,335.894C189.673,335.894 198.362,332.872 205.163,327.205C211.964,322.292 216.498,314.736 218.765,305.29L255.037,313.98C251.259,328.716 244.837,340.051 236.524,347.229C222.167,360.076 204.031,366.877 182.116,366.877Z" style="fill:rgb(231,25,71);"/>
                <path d="M540.68,360.831C532.746,363.098 521.411,364.232 506.297,364.232L438.665,364.232L438.665,182.494L507.809,182.494C521.411,182.494 531.99,183.628 540.68,186.272C551.637,189.673 559.95,194.207 565.995,200.63C574.685,208.942 581.108,219.522 585.642,232.746C589.421,243.703 591.309,256.549 591.309,271.285C591.309,288.287 589.421,302.645 585.642,314.358C581.486,326.071 575.063,335.894 567.884,343.829C560.327,351.763 551.637,357.431 540.68,360.831M475.315,332.872L491.94,332.872C507.053,332.872 516.877,332.494 522.166,331.36C529.345,329.849 535.013,326.826 539.168,323.048C543.325,318.892 546.725,312.847 549.748,305.29C552.015,297.734 553.149,287.154 553.149,273.174C553.149,258.816 552.015,247.86 549.748,239.547C546.725,231.612 544.081,225.945 540.302,222.167C536.146,218.389 531.234,216.499 525.566,214.61C520.655,213.476 513.476,212.721 502.896,212.721L475.315,212.721L475.315,332.872Z" style="fill:rgb(231,25,71);"/>
                <path d="M711.46,332.872L711.46,364.232L600,364.232L600,182.494L711.46,182.494L711.46,212.721L636.649,212.721L636.649,262.217L711.46,262.217L711.46,292.821L636.649,292.821L636.649,332.872L711.46,332.872Z" style="fill:rgb(231,25,71);"/>
            </g>
        </g>
        <g transform="matrix(1,0,0,-1,0,450)">
            <g id="Group_2">
                <path d="M115.239,103.149C112.216,109.194 111.084,115.995 111.084,124.686C111.084,130.731 112.216,137.154 114.483,143.199C115.995,149.245 120.152,154.157 125.441,157.935C130.352,161.335 136.776,162.847 143.954,162.847C150,162.847 155.668,161.335 159.823,158.691C164.357,154.913 167.759,150 170.026,142.822L182.493,145.845C179.849,154.534 174.937,162.091 168.514,167.003C162.09,172.293 153.778,174.182 143.954,174.182C135.265,174.182 127.33,172.293 120.152,168.136C112.595,164.358 107.682,158.691 103.904,151.134C99.749,143.578 98.237,134.51 98.237,124.686C98.237,115.24 99.749,106.927 103.148,98.238C106.55,90.681 111.839,84.257 118.262,79.723C124.686,75.568 132.998,73.678 143.954,73.678C154.157,73.678 162.846,76.323 169.27,81.99C176.827,86.903 181.361,94.837 184.005,105.794L171.158,109.194C169.27,101.26 166.247,94.837 160.958,91.058C155.668,86.903 150,85.013 142.822,85.013C136.776,85.013 131.487,86.524 126.574,89.17C121.284,92.192 117.506,96.726 115.239,103.149Z" style="fill:rgb(231,25,71);"/>
                <path d="M711.46,169.27C710.705,170.026 709.572,170.403 708.438,171.159C702.771,173.049 696.347,174.182 689.169,174.182C682.368,174.182 676.322,173.049 671.033,171.159C666.12,168.515 661.965,165.492 659.319,161.335C656.297,156.801 654.785,152.267 654.785,147.356C654.785,143.199 655.541,139.421 658.186,135.265C660.453,131.487 663.853,128.464 668.766,126.197C672.166,124.686 678.211,122.419 687.657,120.152C696.347,118.262 702.015,116.751 704.659,115.24C707.305,114.484 709.572,113.351 711.46,111.84L711.46,126.197C707.305,128.086 700.504,130.353 690.302,132.243C680.101,135.265 673.677,137.532 671.033,139.799C668.01,142.066 666.876,145.089 666.876,148.489C666.876,152.267 668.766,155.668 672.544,158.691C676.322,161.335 681.989,162.847 689.546,162.847C697.103,162.847 702.771,161.335 706.549,157.935C708.438,156.424 710.327,154.534 711.46,152.267L711.46,169.27Z" style="fill:rgb(231,25,71);"/>
                <path d="M711.46,90.681C709.572,89.17 707.682,88.414 705.038,86.903C700.881,85.391 697.103,85.013 692.191,85.013C686.523,85.013 681.234,86.147 677.455,87.658C672.544,89.925 669.521,92.57 666.876,95.592C665.365,98.238 663.853,102.393 663.098,107.683L651.007,106.172C651.007,100.126 652.897,94.081 656.297,88.791C659.698,83.502 664.232,80.479 670.654,77.456C676.7,74.812 683.879,73.678 692.569,73.678C699.37,73.678 705.793,74.812 711.46,77.456L711.46,90.681Z" style="fill:rgb(231,25,71);"/>
                <path d="M636.649,161.335C633.627,165.492 629.093,168.515 623.426,171.159C617.002,173.049 610.957,174.182 604.156,174.182C594.332,174.182 585.642,172.293 578.086,168.136C570.906,164.358 565.239,158.691 561.083,150C557.304,141.688 555.416,132.998 555.416,123.175C555.416,113.728 557.304,105.416 561.083,97.482C565.239,89.925 571.285,83.502 579.219,79.723C586.775,75.568 595.843,73.678 605.29,73.678C612.091,73.678 618.892,74.812 625.693,77.456C632.494,80.479 639.295,83.502 645.34,88.791L645.34,125.063L604.156,125.063L604.156,113.351L632.494,113.351L632.494,94.837C629.848,92.57 625.693,90.681 620.78,88.414C615.491,86.524 609.824,85.391 604.156,85.391C598.11,85.391 591.688,86.524 586.02,89.17C580.353,92.192 575.819,96.726 573.173,102.393C570.151,108.817 568.639,115.24 568.639,123.93C568.639,131.487 569.395,137.532 572.418,143.578C574.307,147.356 575.819,150.756 578.841,153.401C581.486,156.424 584.887,158.691 588.665,160.202C592.821,162.091 598.11,162.847 604.156,162.847C609.445,162.847 613.979,162.469 617.758,160.58C621.536,159.068 624.559,156.801 626.826,154.157C629.093,151.134 630.982,147.356 632.494,142.066L643.829,145.466C642.317,151.512 639.672,157.18 636.649,161.335Z" style="fill:rgb(231,25,71);"/>
                <path d="M546.348,172.67L533.879,172.67L533.879,96.348L482.872,172.67L469.27,172.67L469.27,75.189L481.738,75.189L481.738,151.512L532.746,75.189L546.348,75.189L546.348,172.67Z" style="fill:rgb(231,25,71);"/>
                <rect x="442.821" y="75.189" width="12.847" height="97.481" style="fill:rgb(231,25,71);"/>
                <path d="M438.287,172.67L425.063,172.67L398.993,102.016C396.726,96.726 395.214,91.058 393.324,86.147C392.192,91.058 390.302,96.348 388.035,102.016L363.476,172.67L349.119,172.67L387.279,75.189L400.125,75.189L438.287,172.67Z" style="fill:rgb(231,25,71);"/>
                <path d="M323.047,119.396C332.871,120.908 339.295,123.93 343.45,128.464C347.984,133.754 350.251,139.421 350.251,145.845C350.251,151.134 349.119,156.424 346.473,160.58C343.45,165.492 340.051,168.136 335.517,170.026C330.983,171.537 324.182,172.67 315.869,172.67L272.796,172.67L272.796,75.189L285.643,75.189L285.643,118.262L300.377,118.262C303.779,118.262 306.046,118.262 307.934,117.507C309.445,117.129 311.712,116.751 313.602,115.24C315.114,114.484 317.381,111.84 320.025,108.817C322.292,105.794 325.314,101.26 329.471,95.592L342.318,75.189L358.187,75.189L341.183,102.016C337.784,106.927 334.382,111.084 330.983,114.862C329.471,116.751 326.449,117.507 323.047,119.396M334.382,137.154C332.871,134.131 330.604,132.243 327.204,131.487C323.803,130.353 319.269,129.597 312.847,129.597L285.643,129.597L285.643,162.091L316.246,162.091C323.803,162.091 328.716,160.202 332.115,157.18C335.517,154.534 337.028,150.756 337.028,145.845C337.028,143.199 336.272,139.799 334.382,137.154Z" style="fill:rgb(231,25,71);"/>
                <path d="M244.837,104.66L256.927,75.189L270.906,75.189L231.235,172.67L217.633,172.67L180.226,75.189L193.828,75.189L204.786,104.66L244.837,104.66M223.678,162.469C225.566,157.18 227.833,150.756 231.235,142.066L240.68,115.24L208.186,115.24L218.765,143.578C221.032,150 222.922,156.424 223.678,162.469Z" style="fill:rgb(231,25,71);"/>
            </g>
        </g>
        <g transform="matrix(1,0,0,-1,0,450)">
            <path id="Group_3" d="M148.488,386.524L150,393.325C128.841,392.569 112.595,389.547 103.148,383.501C92.948,377.079 85.768,367.632 81.234,355.164C78.211,347.229 72.544,326.071 64.609,292.821C57.808,264.484 53.653,248.615 52.141,244.837C50.63,239.547 47.229,235.391 41.939,231.612C36.65,227.834 30.604,225.19 23.426,224.811C30.604,223.3 35.138,220.277 38.161,217.633C40.806,213.855 41.939,209.698 41.939,204.031C41.939,198.741 38.539,183.628 31.738,157.935C22.292,122.419 17.758,98.993 17.758,88.414C17.758,78.59 21.536,70.655 29.093,65.744C36.272,60.076 50.63,57.053 70.277,56.676L72.166,63.854C61.209,64.233 53.274,66.5 47.985,71.411C42.318,75.568 39.672,81.235 39.672,87.658C39.672,92.57 40.428,98.238 41.562,104.66C42.318,111.084 46.473,126.197 52.897,150.756C58.942,173.049 61.965,186.272 62.342,189.673C63.476,194.963 64.232,198.741 64.232,202.52C64.232,211.965 59.32,219.144 51.007,224.811C57.431,226.701 62.342,228.968 65.743,232.746C70.277,237.28 74.433,244.081 77.078,252.394C78.967,257.305 82.745,274.308 89.169,303.401C96.347,338.161 104.66,361.21 113.351,372.166C119.773,380.101 131.487,384.635 148.488,386.524Z" style="fill:rgb(231,25,71);"/>
        </g>
        <g transform="matrix(1,0,0,-1,0,450)">
            <path id="Group_4" d="M732.242,387.776C732.242,389.602 731.863,390.332 730.352,391.429C729.219,392.89 728.463,393.254 726.574,393.254C724.685,393.254 723.551,392.89 722.795,391.429C721.662,390.332 720.907,389.602 720.907,387.776L720.907,62.295C720.907,60.47 721.662,59.74 722.795,58.643C723.551,57.181 724.685,56.817 726.574,56.817C728.463,56.817 729.219,57.181 730.352,58.643C731.863,59.74 732.242,60.47 732.242,62.295L732.242,387.776Z" style="fill:rgb(231,25,71);"/>
        </g>
    </g>
</svg>
